<?xml version="1.0" encoding="UTF-8" standalone="no"?>
<svg
   width="29.690931mm"
   height="15.50613mm"
   viewBox="0 0 29.690931 15.50613"
   version="1.1"
   id="svg4769"
   sodipodi:docname="de-RSE-teaching-logo-only-colour.svg"
   inkscape:version="1.1.2 (0a00cf5339, 2022-02-04)"
   xmlns:inkscape="http://www.inkscape.org/namespaces/inkscape"
   xmlns:sodipodi="http://sodipodi.sourceforge.net/DTD/sodipodi-0.dtd"
   xmlns="http://www.w3.org/2000/svg"
   xmlns:svg="http://www.w3.org/2000/svg"
   xmlns:rdf="http://www.w3.org/1999/02/22-rdf-syntax-ns#"
   xmlns:cc="http://creativecommons.org/ns#"
   xmlns:dc="http://purl.org/dc/elements/1.1/">
  <sodipodi:namedview
     pagecolor="#ffffff"
     bordercolor="#666666"
     borderopacity="1"
     objecttolerance="10"
     gridtolerance="10"
     guidetolerance="10"
     inkscape:pageopacity="0"
     inkscape:pageshadow="2"
     inkscape:window-width="2500"
     inkscape:window-height="1376"
     id="namedview27"
     showgrid="false"
     inkscape:zoom="4.4152926"
     inkscape:cx="126.83191"
     inkscape:cy="41.107128"
     inkscape:window-x="1500"
     inkscape:window-y="27"
     inkscape:window-maximized="1"
     inkscape:current-layer="text16452"
     fit-margin-top="0"
     fit-margin-left="0"
     fit-margin-right="0"
     fit-margin-bottom="0"
     inkscape:pagecheckerboard="0"
     inkscape:document-units="mm"
     inkscape:snap-page="true"
     showguides="true"
     inkscape:guide-bbox="true"
     inkscape:snap-text-baseline="true">
    <sodipodi:guide
       position="28.559323,0"
       orientation="0,-1"
       id="guide29376" />
    <sodipodi:guide
       position="29.690931,10.511504"
       orientation="1,0"
       id="guide29378" />
  </sodipodi:namedview>
  <defs
     id="defs4763" />
  <metadata
     id="metadata4766">
    <rdf:RDF>
      <cc:Work
         rdf:about="">
        <dc:format>image/svg+xml</dc:format>
        <dc:type
           rdf:resource="http://purl.org/dc/dcmitype/StillImage" />
      </cc:Work>
    </rdf:RDF>
  </metadata>
  <g
     inkscape:groupmode="layer"
     id="layer3"
     inkscape:label="Logo"
     style="display:inline"
     sodipodi:insensitive="true"
     transform="translate(-3.0737096,-2.24689)">
    <g
       id="g4553">
      <path
         inkscape:connector-curvature="0"
         style="opacity:1;fill:#c94fa0;fill-opacity:1;fill-rule:nonzero;stroke:none;stroke-width:0.264583;stroke-linecap:butt;stroke-linejoin:round;stroke-miterlimit:4;stroke-dasharray:none;stroke-dashoffset:0;stroke-opacity:0.941176;paint-order:stroke markers fill"
         d="m 24.709874,11.55494 -2.680456,4.64313 h -1.795756 l 0.89762,1.55495 h 5.29e-4 7.156668 z"
         id="path4669" />
      <path
         inkscape:connector-curvature="0"
         style="opacity:1;fill:#b03686;fill-opacity:1;fill-rule:nonzero;stroke:none;stroke-width:0.264583;stroke-linecap:butt;stroke-linejoin:round;stroke-miterlimit:4;stroke-dasharray:none;stroke-dashoffset:0;stroke-opacity:0.941176;paint-order:stroke markers fill"
         d="M 12.17882,2.24689 7.7026072,9.99991 h 2.3667808 v -2.4691 h 2.031917 c 1.298222,0 2.102714,0.66287 2.102714,1.75648 0,0.2639 -0.04971,0.50194 -0.14056,0.71262 h 0.796334 l 0.897619,-1.55495 z m -1.192176,6.05958 v 1.69344 h 1.998328 c 0.194316,-0.16886 0.294556,-0.41015 0.294556,-0.71262 0,-0.62089 -0.416264,-0.98082 -1.220598,-0.98082 z"
         id="path4663" />
      <path
         inkscape:connector-curvature="0"
         style="opacity:1;fill:#621e4b;fill-opacity:1;fill-rule:nonzero;stroke:none;stroke-width:0.264583;stroke-linecap:butt;stroke-linejoin:round;stroke-miterlimit:4;stroke-dasharray:none;stroke-dashoffset:0;stroke-opacity:0.941176;paint-order:stroke markers fill"
         d="m 15.75745,11.55494 -3.578593,6.19808 h 7.157185 z"
         id="path4665" />
      <path
         inkscape:connector-curvature="0"
         style="opacity:1;fill:#c94fa0;fill-opacity:1;fill-rule:nonzero;stroke:none;stroke-width:0.264583;stroke-linecap:butt;stroke-linejoin:round;stroke-miterlimit:4;stroke-dasharray:none;stroke-dashoffset:0;stroke-opacity:0.941176;paint-order:stroke markers fill"
         d="m 12.179374,2.24698 3.578076,6.19808 2.680973,-4.64313 h 1.795239 l -0.89762,-1.55495 z"
         id="path4671" />
      <path
         inkscape:connector-curvature="0"
         style="opacity:1;fill:#892a69;fill-opacity:1;fill-rule:nonzero;stroke:none;stroke-width:0.264583;stroke-linecap:butt;stroke-linejoin:round;stroke-miterlimit:4;stroke-dasharray:none;stroke-dashoffset:0;stroke-opacity:0.941176;paint-order:stroke markers fill"
         d="m 7.7026072,9.99991 4.4762128,7.75301 3.578592,-6.19807 -0.897619,-1.55494 h -0.796334 c -0.166613,0.38637 -0.476778,0.67803 -0.910539,0.84697 l 1.135848,1.62264 H 13.300715 L 12.291991,11.0231 c -0.0635,0.007 -0.127186,0.007 -0.190686,0.007 h -1.114661 v 1.43919 H 10.069388 V 9.99968 Z m 3.2840368,0 v 0.27543 h 1.072286 c 0.412501,0 0.721476,-0.0977 0.926042,-0.27543 z"
         id="path4673" />
      <path
         inkscape:connector-curvature="0"
         style="opacity:1;fill:#892a69;fill-opacity:1;fill-rule:nonzero;stroke:none;stroke-width:0.264583;stroke-linecap:butt;stroke-linejoin:round;stroke-miterlimit:4;stroke-dasharray:none;stroke-dashoffset:0;stroke-opacity:0.941176;paint-order:stroke markers fill"
         d="m 28.288429,2.24689 -3.578591,6.19807 0.898136,1.55495 h 0.828373 v -2.4691 h 3.604947 v 0.76894 h -2.688206 v 1.28416 h 2.384866 v 0.416 h 3.026688 z"
         id="path4667" />
      <path
         inkscape:connector-curvature="0"
         style="opacity:1;fill:#b03686;fill-opacity:1;fill-rule:nonzero;stroke:none;stroke-width:0.264583;stroke-linecap:butt;stroke-linejoin:round;stroke-miterlimit:4;stroke-dasharray:none;stroke-dashoffset:0;stroke-opacity:0.941176;paint-order:stroke markers fill"
         d="m 25.607974,9.99991 -0.898136,1.55494 3.578591,6.19807 4.476213,-7.75301 h -3.026688 v 0.33899 h -2.384866 v 1.36168 h 2.787425 v 0.76894 H 26.436347 V 9.99991 Z"
         id="path4675" />
      <path
         inkscape:connector-curvature="0"
         id="path5607"
         d="m 21.131798,2.24698 3.578076,6.19808 3.578593,-6.19808 z"
         style="opacity:1;fill:#621e4b;fill-opacity:1;fill-rule:nonzero;stroke:none;stroke-width:0.264583;stroke-linecap:butt;stroke-linejoin:round;stroke-miterlimit:4;stroke-dasharray:none;stroke-dashoffset:0;stroke-opacity:0.941176;paint-order:stroke markers fill" />
      <g
         id="text5362"
         style="font-style:normal;font-variant:normal;font-weight:normal;font-stretch:normal;font-size:7.05556px;line-height:125%;font-family:Montserrat;-inkscape-font-specification:Montserrat;text-align:start;letter-spacing:0px;word-spacing:0px;writing-mode:lr-tb;text-anchor:start;fill:#621e4b;fill-opacity:1;stroke:none;stroke-width:0.264583px;stroke-linecap:butt;stroke-linejoin:miter;stroke-opacity:1"
         aria-label="S">
        <path
           id="path4540"
           style="font-style:normal;font-variant:normal;font-weight:normal;font-stretch:normal;font-family:Montserrat;-inkscape-font-specification:Montserrat;fill:#621e4b;fill-opacity:1;stroke-width:0.264583px"
           d="m 20.230135,12.511785 c 1.262944,0 1.8415,-0.620889 1.8415,-1.347611 0,-1.7991664 -3.040945,-0.980722 -3.040945,-2.3353887 0,-0.4938888 0.402167,-0.8960555 1.305278,-0.8960555 0.437445,0 0.931333,0.1340556 1.354667,0.4092222 L 21.867024,7.9256743 C 21.471913,7.6505076 20.893357,7.4882298 20.335968,7.4882298 c -1.255889,0 -1.820333,0.6279445 -1.820333,1.3546667 0,1.8273885 3.040944,0.9948333 3.040944,2.3494995 0,0.486834 -0.402166,0.874889 -1.326444,0.874889 -0.649111,0 -1.277056,-0.254 -1.629834,-0.599722 L 18.39569,11.86973 c 0.366889,0.381 1.093611,0.642055 1.834445,0.642055 z"
           inkscape:connector-curvature="0" />
      </g>
      <path
         style="opacity:1;fill:#621e4b;fill-opacity:1;fill-rule:nonzero;stroke:none;stroke-width:0.264583;stroke-linecap:butt;stroke-linejoin:round;stroke-miterlimit:4;stroke-dasharray:none;stroke-dashoffset:0;stroke-opacity:0.941176;paint-order:stroke markers fill"
         d="m 21.131798,2.24698 3.578076,6.19808 3.578593,-6.19808 z"
         id="path4551"
         inkscape:connector-curvature="0" />
      <path
         id="path4553"
         d="m 28.288429,2.24689 -3.578591,6.19807 0.898136,1.55495 h 0.828373 v -2.4691 h 3.604947 v 0.76894 h -2.688206 v 1.28416 h 2.384866 v 0.416 h 3.026688 z"
         style="opacity:1;fill:#892a69;fill-opacity:1;fill-rule:nonzero;stroke:none;stroke-width:0.264583;stroke-linecap:butt;stroke-linejoin:round;stroke-miterlimit:4;stroke-dasharray:none;stroke-dashoffset:0;stroke-opacity:0.941176;paint-order:stroke markers fill"
         inkscape:connector-curvature="0" />
      <path
         id="path4555"
         d="m 25.607974,9.99991 -0.898136,1.55494 3.578591,6.19807 4.476213,-7.75301 h -3.026688 v 0.33899 h -2.384866 v 1.36168 h 2.787425 v 0.76894 H 26.436347 V 9.99991 Z"
         style="opacity:1;fill:#b03686;fill-opacity:1;fill-rule:nonzero;stroke:none;stroke-width:0.264583;stroke-linecap:butt;stroke-linejoin:round;stroke-miterlimit:4;stroke-dasharray:none;stroke-dashoffset:0;stroke-opacity:0.941176;paint-order:stroke markers fill"
         inkscape:connector-curvature="0" />
      <path
         id="path4557"
         d="m 24.709874,11.55494 -2.680456,4.64313 h -1.795756 l 0.89762,1.55495 h 5.29e-4 7.156668 z"
         style="opacity:1;fill:#c94fa0;fill-opacity:1;fill-rule:nonzero;stroke:none;stroke-width:0.264583;stroke-linecap:butt;stroke-linejoin:round;stroke-miterlimit:4;stroke-dasharray:none;stroke-dashoffset:0;stroke-opacity:0.941176;paint-order:stroke markers fill"
         inkscape:connector-curvature="0" />
      <path
         id="path4559"
         d="m 15.75745,11.55494 -3.578593,6.19808 h 7.157185 z"
         style="opacity:1;fill:#621e4b;fill-opacity:1;fill-rule:nonzero;stroke:none;stroke-width:0.264583;stroke-linecap:butt;stroke-linejoin:round;stroke-miterlimit:4;stroke-dasharray:none;stroke-dashoffset:0;stroke-opacity:0.941176;paint-order:stroke markers fill"
         inkscape:connector-curvature="0" />
      <path
         id="path4561"
         d="m 7.7026072,9.99991 4.4762128,7.75301 3.578592,-6.19807 -0.897619,-1.55494 h -0.796334 c -0.166613,0.38637 -0.476778,0.67803 -0.910539,0.84697 l 1.135848,1.62264 H 13.300715 L 12.291991,11.0231 c -0.0635,0.007 -0.127186,0.007 -0.190686,0.007 h -1.114661 v 1.43919 H 10.069388 V 9.99968 Z m 3.2840368,0 v 0.27543 h 1.072286 c 0.412501,0 0.721476,-0.0977 0.926042,-0.27543 z"
         style="opacity:1;fill:#892a69;fill-opacity:1;fill-rule:nonzero;stroke:none;stroke-width:0.264583;stroke-linecap:butt;stroke-linejoin:round;stroke-miterlimit:4;stroke-dasharray:none;stroke-dashoffset:0;stroke-opacity:0.941176;paint-order:stroke markers fill"
         inkscape:connector-curvature="0" />
      <path
         id="path4563"
         d="M 12.17882,2.24689 7.7026072,9.99991 h 2.3667808 v -2.4691 h 2.031917 c 1.298222,0 2.102714,0.66287 2.102714,1.75648 0,0.2639 -0.04971,0.50194 -0.14056,0.71262 h 0.796334 l 0.897619,-1.55495 z m -1.192176,6.05958 v 1.69344 h 1.998328 c 0.194316,-0.16886 0.294556,-0.41015 0.294556,-0.71262 0,-0.62089 -0.416264,-0.98082 -1.220598,-0.98082 z"
         style="opacity:1;fill:#b03686;fill-opacity:1;fill-rule:nonzero;stroke:none;stroke-width:0.264583;stroke-linecap:butt;stroke-linejoin:round;stroke-miterlimit:4;stroke-dasharray:none;stroke-dashoffset:0;stroke-opacity:0.941176;paint-order:stroke markers fill"
         inkscape:connector-curvature="0" />
      <path
         id="path4565"
         d="m 12.179374,2.24698 3.578076,6.19808 2.680973,-4.64313 h 1.795239 l -0.89762,-1.55495 z"
         style="opacity:1;fill:#c94fa0;fill-opacity:1;fill-rule:nonzero;stroke:none;stroke-width:0.264583;stroke-linecap:butt;stroke-linejoin:round;stroke-miterlimit:4;stroke-dasharray:none;stroke-dashoffset:0;stroke-opacity:0.941176;paint-order:stroke markers fill"
         inkscape:connector-curvature="0" />
    </g>
  </g>
  <g
     inkscape:groupmode="layer"
     id="layer5"
     inkscape:label="Specifier"
     style="display:inline">
    <g
       aria-label="teaching"
       id="text16452"
       style="font-size:4.9389px;line-height:1.25;font-family:Montserrat;-inkscape-font-specification:Montserrat;fill:#621e4b;stroke-width:0.264583">
      <g
         aria-label="teaching"
         id="text73579"
         style="font-weight:300;-inkscape-font-specification:'Montserrat Light';stroke-width:0.0700042">
        <path
           d="m 30.708356,15.01224 c -0.09878,0.07902 -0.232128,0.123473 -0.370417,0.123473 -0.261762,0 -0.409929,-0.158045 -0.409929,-0.439562 v -1.417465 h 0.750713 V 12.888513 H 29.92801 v -0.572912 h -0.474134 v 0.572912 h -0.444501 v 0.390173 h 0.444501 v 1.43722 c 0,0.528463 0.301273,0.819858 0.829735,0.819858 0.212373,0 0.429684,-0.05927 0.572912,-0.18274 z"
           style="font-weight:normal;-inkscape-font-specification:Montserrat"
           id="path103679" />
        <path
           d="m 33.706259,14.212138 c 0,-0.80504 -0.53834,-1.348319 -1.293992,-1.348319 -0.755652,0 -1.313747,0.558095 -1.313747,1.333503 0,0.780346 0.563034,1.338442 1.407586,1.338442 0.434623,0 0.795163,-0.148167 1.03223,-0.424746 l -0.261761,-0.306212 c -0.192618,0.212373 -0.44944,0.31609 -0.755652,0.31609 -0.518585,0 -0.889002,-0.306212 -0.948269,-0.765529 h 2.123727 c 0.0049,-0.04445 0.0099,-0.103717 0.0099,-0.143229 z M 32.412267,13.26387 c 0.459318,0 0.790224,0.31115 0.839613,0.750712 h -1.679226 c 0.04939,-0.444501 0.385234,-0.750712 0.839613,-0.750712 z"
           style="font-weight:normal;-inkscape-font-specification:Montserrat"
           id="path103681" />
        <path
           d="m 35.242248,12.863819 c -0.419806,0 -0.809979,0.118533 -1.081619,0.335845 l 0.197556,0.355601 c 0.202495,-0.172862 0.518585,-0.281518 0.829735,-0.281518 0.469196,0 0.701324,0.232129 0.701324,0.63218 v 0.09384 h -0.750713 c -0.780346,0 -1.051985,0.345723 -1.051985,0.765529 0,0.454379 0.375356,0.770469 0.968024,0.770469 0.409929,0 0.701324,-0.13829 0.859369,-0.375357 v 0.345723 h 0.449439 v -1.580448 c 0,-0.71614 -0.404989,-1.061863 -1.12113,-1.061863 z m -0.108656,2.306466 c -0.360539,0 -0.577851,-0.162984 -0.577851,-0.424745 0,-0.222251 0.13335,-0.40499 0.602546,-0.40499 h 0.730957 v 0.365478 c -0.118534,0.301273 -0.400051,0.464257 -0.755652,0.464257 z"
           style="font-weight:normal;-inkscape-font-specification:Montserrat"
           id="path103683" />
        <path
           d="m 38.398195,15.535764 c 0.469195,0 0.859368,-0.197556 1.066802,-0.563035 l -0.36054,-0.227189 c -0.167922,0.256822 -0.424745,0.375356 -0.711201,0.375356 -0.513646,0 -0.89888,-0.355601 -0.89888,-0.923574 0,-0.558096 0.385234,-0.918636 0.89888,-0.918636 0.286456,0 0.543279,0.118534 0.711201,0.375357 l 0.36054,-0.232129 c -0.207434,-0.365478 -0.597607,-0.558095 -1.066802,-0.558095 -0.805041,0 -1.382892,0.553157 -1.382892,1.333503 0,0.780346 0.577851,1.338442 1.382892,1.338442 z"
           style="font-weight:normal;-inkscape-font-specification:Montserrat"
           id="path103685" />
        <path
           d="m 41.440544,12.863819 c -0.400051,0 -0.726018,0.143228 -0.923574,0.395112 v -1.417465 h -0.474135 v 3.664664 h 0.474135 v -1.348319 c 0,-0.567974 0.325967,-0.869247 0.829735,-0.869247 0.44944,0 0.706262,0.251884 0.706262,0.76553 v 1.452036 h 0.474135 v -1.506364 c 0,-0.770469 -0.44944,-1.135947 -1.086558,-1.135947 z"
           style="font-weight:normal;-inkscape-font-specification:Montserrat"
           id="path103687" />
        <path
           d="m 43.643292,12.384745 c 0.187679,0 0.321029,-0.138289 0.321029,-0.316089 0,-0.167923 -0.138289,-0.301273 -0.321029,-0.301273 -0.182739,0 -0.321028,0.138289 -0.321028,0.311151 0,0.172861 0.138289,0.306211 0.321028,0.306211 z m -0.237067,3.121385 h 0.474135 v -2.617617 h -0.474135 z"
           style="font-weight:normal;-inkscape-font-specification:Montserrat"
           id="path103689" />
        <path
           d="m 46.181884,12.863819 c -0.414868,0 -0.750713,0.153106 -0.94333,0.419806 v -0.395112 h -0.454379 v 2.617617 h 0.474134 v -1.348319 c 0,-0.567974 0.325968,-0.869247 0.829735,-0.869247 0.44944,0 0.706263,0.251884 0.706263,0.76553 v 1.452036 h 0.474135 v -1.506364 c 0,-0.770469 -0.44944,-1.135947 -1.086558,-1.135947 z"
           style="font-weight:normal;-inkscape-font-specification:Montserrat"
           id="path103691" />
        <path
           d="m 50.216955,12.888513 v 0.40499 c -0.222251,-0.286456 -0.577851,-0.429684 -0.968025,-0.429684 -0.755651,0 -1.328564,0.508706 -1.328564,1.264358 0,0.755652 0.572913,1.269297 1.328564,1.269297 0.375357,0 0.716141,-0.13335 0.94333,-0.404989 v 0.207433 c 0,0.592668 -0.281517,0.879125 -0.898879,0.879125 -0.385235,0 -0.76553,-0.133351 -1.007536,-0.340784 l -0.227189,0.365478 c 0.286456,0.256823 0.770468,0.390173 1.249541,0.390173 0.889002,0 1.358198,-0.419806 1.358198,-1.343381 v -2.262016 z m -0.913697,2.094094 c -0.528462,0 -0.903818,-0.350662 -0.903818,-0.85443 0,-0.508707 0.375356,-0.849491 0.903818,-0.849491 0.523524,0 0.89888,0.340784 0.89888,0.849491 0,0.503768 -0.375356,0.85443 -0.89888,0.85443 z"
           style="font-weight:normal;-inkscape-font-specification:Montserrat"
           id="path103693" />
      </g>
    </g>
    <g
       aria-label="teaching"
       id="g29516"
       style="font-size:4.9389px;line-height:1.25;font-family:Montserrat;-inkscape-font-specification:Montserrat;fill:#621e4b;stroke-width:0.264583"
       transform="translate(-30.342574,6.1803046)" />
  </g>
  <g
     inkscape:groupmode="layer"
     id="layer2"
     inkscape:label="Prefix_as_path"
     style="display:inline"
     transform="translate(-3.0737096,-2.24689)"
     sodipodi:insensitive="true">
    <g
       aria-label="de"
       style="font-style:normal;font-variant:normal;font-weight:normal;font-stretch:normal;font-size:7.05556px;line-height:125%;font-family:Montserrat;-inkscape-font-specification:Montserrat;text-align:start;letter-spacing:0px;word-spacing:0px;writing-mode:lr-tb;text-anchor:start;display:inline;fill:#621e4b;fill-opacity:1;stroke:none;stroke-width:0.264583px;stroke-linecap:butt;stroke-linejoin:miter;stroke-opacity:1"
       id="text5346">
      <path
         inkscape:connector-curvature="0"
         d="m 5.3554763,2.2469654 v 1.560689 C 5.1381652,3.4718099 4.7825652,3.2940099 4.3676985,3.2940099 c -0.7408334,0 -1.2939889,0.5334 -1.2939889,1.3186834 0,0.7852833 0.5531555,1.3236222 1.2939889,1.3236222 0.4296833,0 0.7902222,-0.1876777 1.0025945,-0.5383389 V 5.9116211 H 5.7061374 V 2.2469654 Z M 4.3973318,5.6251655 c -0.5531556,0 -0.9680222,-0.4049889 -0.9680222,-1.0124722 0,-0.6074834 0.4148666,-1.0124723 0.9680222,-1.0124723 0.5482167,0 0.9630834,0.4049889 0.9630834,1.0124723 0,0.6074833 -0.4148667,1.0124722 -0.9630834,1.0124722 z"
         style="font-style:normal;font-variant:normal;font-weight:normal;font-stretch:normal;font-size:4.93889px;font-family:Montserrat;-inkscape-font-specification:Montserrat;fill:#621e4b;fill-opacity:1;stroke-width:0.264583px"
         id="path4534" />
      <path
         inkscape:connector-curvature="0"
         d="m 8.9496755,4.6126933 c 0,-0.7803445 -0.5284611,-1.3186834 -1.2594167,-1.3186834 -0.7309556,0 -1.2692945,0.5482167 -1.2692945,1.3186834 0,0.7704667 0.5531556,1.3236222 1.3631334,1.3236222 0.4099278,0 0.7704667,-0.1481666 1.0025945,-0.4247444 L 8.5891366,5.2843822 C 8.391581,5.5115711 8.1100644,5.6251655 7.7939755,5.6251655 c -0.5679723,0 -0.982839,-0.3605389 -1.0223501,-0.9038167 h 2.1731112 c 0,-0.039511 0.00494,-0.079022 0.00494,-0.1086555 z M 7.6902588,3.5952821 c 0.5087056,0 0.8791222,0.3556001 0.9235722,0.8643056 H 6.7716254 C 6.8160754,3.9508822 7.1864921,3.5952821 7.6902588,3.5952821 Z"
         style="font-style:normal;font-variant:normal;font-weight:normal;font-stretch:normal;font-size:4.93889px;font-family:Montserrat;-inkscape-font-specification:Montserrat;fill:#621e4b;fill-opacity:1;stroke-width:0.264583px"
         id="path4536" />
    </g>
  </g>
  <g
     inkscape:groupmode="layer"
     id="layer1"
     inkscape:label="Prefix_editable"
     style="display:none"
     sodipodi:insensitive="true"
     transform="translate(-3.0737096,-2.24689)">
    <text
       xml:space="preserve"
       style="font-style:normal;font-variant:normal;font-weight:normal;font-stretch:normal;font-size:7.05556px;line-height:125%;font-family:Montserrat;-inkscape-font-specification:Montserrat;text-align:end;letter-spacing:0px;word-spacing:0px;writing-mode:lr-tb;text-anchor:end;fill:#00ff00;fill-opacity:1;stroke:none;stroke-width:0.264583px;stroke-linecap:butt;stroke-linejoin:miter;stroke-opacity:1"
       x="9.1744738"
       y="5.9116211"
       id="text4513"><tspan
         sodipodi:role="line"
         id="tspan4511"
         x="9.1744738"
         y="5.9116211"
         style="font-size:4.93889px;text-align:end;text-anchor:end;fill:#00ff00;fill-opacity:1;stroke-width:0.264583px">de</tspan></text>
  </g>
  <g
     inkscape:groupmode="layer"
     id="layer4"
     inkscape:label="Helper_lines_alignment"
     style="display:none"
     sodipodi:insensitive="true"
     transform="translate(-3.0737096,-2.24689)">
    <path
       style="display:inline;opacity:1;fill:#404040;fill-opacity:1;fill-rule:nonzero;stroke:#ff0000;stroke-width:0.264583;stroke-linecap:butt;stroke-linejoin:round;stroke-miterlimit:4;stroke-dasharray:none;stroke-dashoffset:0;stroke-opacity:0.941176;paint-order:stroke markers fill"
       d="M 7.702053,9.9998196 V 2.17243"
       id="path5228"
       inkscape:connector-curvature="0" />
    <path
       style="display:inline;opacity:1;fill:#404040;fill-opacity:1;fill-rule:nonzero;stroke:#ff0000;stroke-width:0.264583;stroke-linecap:butt;stroke-linejoin:round;stroke-miterlimit:4;stroke-dasharray:none;stroke-dashoffset:0;stroke-opacity:0.941176;paint-order:stroke markers fill"
       d="M 12.17882,2.24689 H 1.377705"
       id="path5230"
       inkscape:connector-curvature="0" />
  </g>
</svg>
